ply
format ascii 1.0          
element vertex 12          
property float32 x         
property float32 y         
property float32 z         
element face 3
property list uint8 int32 vertex_index 
end_header
-0.181262  0.084524 0 
 0.181262 -0.084524 0 
-0.452666 -1.443985 0 
-0.815189 -1.274938 0
-0.181262 -0.084524 0 
 0.181262  0.084524 0 
 0.815189 -1.274938 0 
 0.452666 -1.443985 0
 0.200000 -0.000000 0 
-0.200000  0.000000 0 
-0.200000  1.500000 0 
 0.200000  1.500000 0
4 3 2 1 0
4 7 6 5 4
4 11 10 9 8
